<svg xmlns="http://www.w3.org/2000/svg" viewBox="0 0 91.13 56.95"><defs><style>.cls-1,.cls-2,.cls-3{fill:none;stroke-miterlimit:10;stroke-width:3px;}.cls-1{stroke:#ff9800;}.cls-1,.cls-2{stroke-linecap:round;}.cls-2,.cls-3{stroke:#003eff;}</style></defs><g id="Layer_2" data-name="Layer 2"><g id="Icons"><line class="cls-1" x1="58.66" y1="10.99" x2="55.21" y2="1.5"/><line class="cls-1" x1="50.36" y1="17.96" x2="41.61" y2="12.91"/><line class="cls-1" x1="69.5" y1="10.99" x2="72.95" y2="1.5"/><line class="cls-1" x1="77.8" y1="17.96" x2="86.55" y2="12.91"/><line class="cls-1" x1="79.68" y1="28.63" x2="89.63" y2="30.39"/><line class="cls-1" x1="74.26" y1="38.02" x2="80.75" y2="45.75"/><path class="cls-1" d="M54.69,20.28a10.82,10.82,0,0,1,9.39-5.52A11,11,0,0,1,75,25.88a11.14,11.14,0,0,1-4.84,9.24"/><path class="cls-2" d="M9.57,40.26H8.27a6.77,6.77,0,0,1,0-13.54,6,6,0,0,1,.85.06,12.22,12.22,0,0,1,22.59-5.14"/><path class="cls-3" d="M62.16,36.81a11.5,11.5,0,0,0-1.18.08A16.83,16.83,0,0,0,28.37,33a11.51,11.51,0,1,0-3.49,22.48H62.16a9.32,9.32,0,0,0,0-18.64Z"/></g></g></svg>