<svg xmlns="http://www.w3.org/2000/svg" viewBox="0 0 72.97 42.67"><defs><style>.cls-1,.cls-2{fill:none;stroke:#003eff;stroke-miterlimit:10;stroke-width:3px;}.cls-1{stroke-linecap:round;}</style></defs><g id="Layer_2" data-name="Layer 2"><g id="Icons"><path class="cls-1" d="M9.57,26H8.27a6.77,6.77,0,0,1,0-13.54,6,6,0,0,1,.85.06A12.22,12.22,0,0,1,31.7,7.35"/><path class="cls-2" d="M62.15,22.52A11.11,11.11,0,0,0,61,22.6a16.84,16.84,0,0,0-32.62-3.92,11.78,11.78,0,0,0-3.48-.54,11.52,11.52,0,0,0,0,23H62.15a9.33,9.33,0,0,0,0-18.65Z"/></g></g></svg>