<svg xmlns="http://www.w3.org/2000/svg" viewBox="0 0 49.7 50.48"><defs><style>.cls-1,.cls-2{fill:none;stroke-linecap:round;stroke-linejoin:round;stroke-width:3px;}.cls-1{stroke:#ff9800;}.cls-2{stroke:#003eff;}</style></defs><g id="Layer_2" data-name="Layer 2"><g id="Icons"><path class="cls-1" d="M38.52,36.09c-13.33,0-24.13-11-24.13-24.66a24.91,24.91,0,0,1,2-9.91A24.66,24.66,0,0,0,1.5,24.31C1.5,37.93,12.3,49,25.63,49A24.1,24.1,0,0,0,47.72,34.22,23.52,23.52,0,0,1,38.52,36.09Z"/><polygon class="cls-2" points="39.26 15.59 33.74 18.49 34.8 12.34 30.33 7.99 36.5 7.09 39.26 1.5 42.02 7.09 48.2 7.99 43.73 12.34 44.78 18.49 39.26 15.59"/></g></g></svg>