<svg xmlns="http://www.w3.org/2000/svg" viewBox="0 0 61.1 48.12"><defs><style>.cls-1{fill:#0096ff;}.cls-2{fill:none;stroke:#003eff;stroke-linecap:round;stroke-miterlimit:10;stroke-width:3px;}</style></defs><g id="Layer_2" data-name="Layer 2"><g id="Icons"><path class="cls-1" d="M33.86,30.77a2.76,2.76,0,1,1-5.52,0c0-1.73,2.76-5.22,2.76-5.22S33.86,29,33.86,30.77Z"/><path class="cls-1" d="M24.35,38a3.58,3.58,0,0,1-3.69,3.75A3.57,3.57,0,0,1,17,38c0-2.31,3.68-7,3.68-7S24.35,35.67,24.35,38Z"/><path class="cls-1" d="M43.94,43.56a4.48,4.48,0,1,1-8.95,0c0-2.8,4.48-8.46,4.48-8.46S43.94,40.76,43.94,43.56Z"/><path class="cls-2" d="M13,35.19A11.51,11.51,0,1,1,16.5,12.71a16.83,16.83,0,0,1,32.61,3.92,9.32,9.32,0,1,1,1.18,18.56h-4"/></g></g></svg>